<svg id="Layer_1" data-name="Layer 1" xmlns="http://www.w3.org/2000/svg" width="35" height="35" viewBox="0 0 35 35"><defs><style>.cls-1{fill:#21242d;}</style></defs><title>github</title><path class="cls-1" d="M17.5,1.465a16.451,16.451,0,0,0-5.175,32.042c.819.151,1.118-.357,1.118-.793,0-.39-.015-1.424-.023-2.8-4.555.994-5.516-2.2-5.516-2.2a4.342,4.342,0,0,0-1.818-2.4c-1.487-1.021.112-1,.112-1A3.441,3.441,0,0,1,8.705,26a3.48,3.48,0,0,0,4.767,1.366,3.517,3.517,0,0,1,1.039-2.2c-3.636-.415-7.459-1.825-7.459-8.125a6.369,6.369,0,0,1,1.686-4.412A5.933,5.933,0,0,1,8.9,8.284s1.376-.442,4.5,1.685a15.448,15.448,0,0,1,8.2,0c3.126-2.127,4.5-1.685,4.5-1.685a5.924,5.924,0,0,1,.162,4.351,6.358,6.358,0,0,1,1.684,4.412c0,6.315-3.829,7.706-7.477,8.113A3.929,3.929,0,0,1,21.581,28.2c0,2.2-.021,3.971-.021,4.51,0,.44.3.952,1.126.791A16.452,16.452,0,0,0,17.5,1.465Z"/></svg>