<svg id="Layer_1" data-name="Layer 1" xmlns="http://www.w3.org/2000/svg" width="35" height="35" viewBox="0 0 35 35"><defs><style>.cls-1{fill:#21242d;}</style></defs><title>linkedin</title><g id="LinkedIn"><rect class="cls-1" x="2.782" y="12.446" width="6.042" height="19.145"/><path class="cls-1" d="M25.332,12.262c-3.461,0-5.63,1.875-6.031,3.189V12.446H12.513c.088,1.6,0,19.145,0,19.145H19.3V21.231a4.387,4.387,0,0,1,.147-1.565A3.46,3.46,0,0,1,22.72,17.32c2.357,0,3.429,1.771,3.429,4.364v9.907H33V20.946C33,15.016,29.627,12.262,25.332,12.262Z"/><path class="cls-1" d="M5.691,3.409A3.374,3.374,0,0,0,2,6.733a3.34,3.34,0,0,0,3.605,3.318h.044a3.337,3.337,0,1,0,.042-6.642Z"/></g></svg>